<?xml version="1.0" standalone="no"?>
<!DOCTYPE svg PUBLIC "-//W3C//DTD SVG 20010904//EN"
 "http://www.w3.org/TR/2001/REC-SVG-20010904/DTD/svg10.dtd">
<svg version="1.0" xmlns="http://www.w3.org/2000/svg"
 width="400.000000pt" height="400.000000pt" viewBox="0 0 400.000000 400.000000"
 preserveAspectRatio="xMidYMid meet">
<metadata>
Created by potrace 1.14, written by Peter Selinger 2001-2017
</metadata>
<g transform="translate(0.000000,400.000000) scale(0.100000,-0.100000)"
fill="#000000" stroke="none">
<path d="M2085 2310 c3 -10 0 -30 -6 -42 -7 -13 -14 -39 -15 -58 -2 -33 0 -35
25 -34 38 3 39 4 12 15 -13 5 -21 12 -18 16 4 3 29 -4 58 -16 28 -12 53 -20
55 -18 3 2 0 16 -5 31 -9 23 -16 26 -61 26 -27 0 -50 4 -50 8 0 5 15 7 33 6
17 -2 24 -1 15 2 -13 4 -18 16 -18 39 0 21 -6 35 -16 39 -12 4 -14 1 -9 -14z"/>
<path d="M2135 2320 c-8 -14 3 -30 21 -30 8 0 14 9 14 20 0 21 -24 28 -35 10z"/>
<path d="M2300 2320 c-8 -5 -11 -12 -8 -16 10 -9 38 3 38 16 0 12 -10 13 -30
0z"/>
<path d="M960 2253 c0 -51 4 -71 19 -87 18 -20 18 -23 1 -106 l-18 -85 31 -27
c36 -31 47 -34 47 -15 0 8 -11 19 -24 25 -22 10 -24 16 -20 49 3 21 14 54 24
73 24 45 30 96 11 92 -20 -4 -40 28 -41 65 0 27 4 34 25 38 14 3 36 7 49 10
14 3 29 -1 36 -10 19 -23 30 -18 30 15 l0 30 -85 0 -85 0 0 -67z"/>
<path d="M1418 2313 c7 -3 16 -2 19 1 4 3 -2 6 -13 5 -11 0 -14 -3 -6 -6z"/>
<path d="M1650 2312 c0 -5 14 -7 30 -4 17 2 30 6 30 8 0 2 -13 4 -30 4 -16 0
-30 -4 -30 -8z"/>
<path d="M1733 2313 c9 -2 23 -2 30 0 6 3 -1 5 -18 5 -16 0 -22 -2 -12 -5z"/>
<path d="M1786 2305 c4 -8 2 -15 -2 -16 -5 0 -39 -1 -76 -2 -61 -2 -68 -4 -68
-22 0 -11 -3 -31 -7 -45 -6 -24 -6 -24 10 -8 10 9 16 22 15 29 -2 7 17 18 42
26 40 12 46 11 58 -4 11 -16 13 -16 27 3 34 43 37 54 16 54 -14 0 -19 -5 -15
-15z"/>
<path d="M1861 2290 c6 -16 13 -30 15 -30 2 0 4 14 4 30 0 20 -5 30 -14 30
-12 0 -13 -6 -5 -30z"/>
<path d="M2022 2301 c9 -15 9 -23 0 -34 -10 -11 -10 -21 -1 -41 9 -19 9 -29 0
-39 -9 -11 -7 -17 6 -28 10 -9 14 -9 10 -2 -5 7 -1 23 7 35 10 15 12 28 6 38
-6 9 -2 23 10 40 22 31 11 50 -27 50 -20 0 -22 -2 -11 -19z"/>
<path d="M2336 2304 c-4 -9 -4 -19 -1 -22 3 -3 5 0 5 6 0 7 5 12 10 12 14 0
12 -28 -2 -33 -7 -2 -11 -7 -8 -10 10 -11 27 7 34 36 5 22 3 27 -13 27 -10 0
-22 -7 -25 -16z"/>
<path d="M2906 2305 c10 -8 17 -15 14 -16 -18 -5 -70 -4 -98 2 -23 5 -32 4
-29 -4 2 -7 14 -10 27 -9 12 2 27 -2 31 -10 6 -9 9 -10 9 -1 0 9 7 10 24 3 13
-5 27 -6 30 -3 9 9 7 -10 -2 -22 -4 -5 -14 -10 -22 -10 -8 0 -19 5 -23 10 -5
6 -7 4 -4 -5 2 -8 10 -14 17 -12 7 2 17 -3 21 -10 7 -11 9 -11 9 0 0 7 5 10
10 7 6 -3 10 -13 10 -21 0 -8 -4 -13 -9 -10 -5 3 -12 -1 -15 -10 -9 -25 -7
-54 5 -54 5 0 7 -5 3 -12 -4 -7 -3 -8 5 -4 6 4 9 12 6 17 -4 5 -2 9 4 9 18 0
34 40 22 54 -6 8 -9 21 -5 30 4 9 1 16 -6 16 -10 0 -10 3 0 15 9 11 8 19 -7
39 -10 14 -24 26 -32 26 -11 0 -9 -4 5 -15z m24 -135 c0 -5 -4 -10 -10 -10 -5
0 -10 5 -10 10 0 6 5 10 10 10 6 0 10 -4 10 -10z"/>
<path d="M2965 2310 c3 -5 8 -10 11 -10 2 0 4 5 4 10 0 6 -5 10 -11 10 -5 0
-7 -4 -4 -10z"/>
<path d="M916 2301 c-4 -6 -12 -8 -18 -5 -8 5 -9 1 -5 -10 4 -10 7 -21 7 -24
0 -4 5 0 10 8 8 12 12 13 19 2 6 -10 10 -8 14 9 4 13 4 25 2 28 -3 2 -5 -2 -5
-10 0 -12 -2 -12 -9 0 -6 9 -11 10 -15 2z"/>
<path d="M1273 2296 c4 -9 10 -23 13 -31 5 -11 2 -13 -10 -9 -19 7 -21 -7 -4
-24 9 -9 8 -12 -7 -12 -17 0 -18 -2 -5 -10 13 -9 12 -12 -4 -25 -19 -14 -19
-15 7 -15 31 0 31 0 13 -44 -17 -41 -11 -51 37 -55 38 -3 45 7 31 43 -5 14
-10 13 -36 -5 -16 -12 -31 -19 -34 -16 -5 5 61 57 73 57 5 0 24 -16 43 -35 19
-19 29 -35 23 -35 -6 0 -16 7 -23 15 -25 30 -28 14 -8 -47 11 -35 21 -72 22
-84 1 -11 6 -25 10 -32 4 -7 4 -17 1 -22 -4 -6 -1 -17 5 -25 6 -8 9 -18 6 -23
-3 -6 0 -15 8 -21 12 -10 13 -6 5 26 -4 21 -6 45 -3 55 3 9 0 19 -6 23 -6 3
-8 11 -5 16 4 5 3 15 -2 22 -9 14 -11 70 -2 59 7 -8 27 -99 33 -152 2 -19 11
-52 20 -72 11 -25 12 -39 5 -43 -12 -8 -12 -8 -27 20 -11 19 -11 18 -12 -7 0
-25 22 -58 40 -58 4 0 6 -9 3 -20 -6 -24 12 -27 33 -5 11 11 12 15 3 15 -7 0
0 14 16 30 30 31 28 38 -7 19 -24 -13 -25 -12 -33 26 l-6 30 20 -23 c11 -12
22 -18 25 -13 3 5 -1 12 -10 15 -10 4 -15 16 -13 33 1 16 -1 36 -5 45 -4 9 -5
21 -2 27 4 5 2 12 -3 15 -5 3 -8 27 -6 53 1 37 -4 55 -23 81 -13 18 -22 36
-19 38 3 3 25 -22 49 -56 35 -51 44 -58 46 -40 2 12 -8 36 -23 56 -25 33 -26
34 -5 34 29 0 21 22 -11 30 -76 20 -81 21 -72 8 10 -17 10 -69 0 -65 -5 1 -8
6 -8 10 0 4 -6 25 -14 47 -16 45 -14 46 48 29 22 -6 41 -8 43 -6 3 2 -17 18
-43 35 l-47 31 28 10 c15 6 35 11 44 12 9 1 0 6 -20 11 -21 6 -38 13 -38 17 0
4 14 15 31 25 39 23 33 28 -15 15 -25 -7 -41 -7 -50 0 -7 6 -17 6 -26 1 -9 -5
-20 -5 -28 2 -10 9 -16 9 -21 -1 -7 -10 -13 -11 -31 -1 -20 11 -22 10 -17 -4z
m102 -28 c18 2 20 -3 20 -38 0 -22 -3 -40 -7 -40 -5 0 -8 -7 -8 -16 0 -13 -3
-14 -15 -4 -8 7 -20 10 -27 7 -17 -6 -42 20 -27 28 7 5 6 11 -2 21 -8 10 -8
14 -1 14 7 0 9 7 5 17 -4 11 -3 14 5 9 7 -4 12 -2 12 4 0 6 5 8 13 3 6 -4 21
-6 32 -5z m108 -345 c1 -29 5 -53 10 -53 10 0 9 -38 -2 -45 -10 -6 -20 31 -25
95 -2 19 -7 53 -11 75 l-7 40 16 -29 c9 -16 17 -53 19 -83z"/>
<path d="M1335 2240 c-8 -13 6 -41 19 -37 17 6 19 34 2 40 -9 4 -18 2 -21 -3z"/>
<path d="M1812 2273 c-13 -19 -22 -37 -19 -39 2 -2 18 -7 36 -10 l33 -7 -7 34
c-12 57 -18 60 -43 22z"/>
<path d="M2223 2295 c-3 -9 -3 -18 -1 -21 3 -3 8 4 11 16 6 23 -1 27 -10 5z"/>
<path d="M2952 2288 c12 -19 14 -28 5 -37 -8 -8 -8 -11 2 -11 8 0 10 -7 6 -20
-4 -12 -2 -20 5 -20 6 0 2 -17 -10 -40 -26 -51 -25 -58 4 -31 31 29 42 22 51
-29 9 -55 25 -50 25 8 0 33 3 43 10 32 5 -8 7 -25 5 -37 -3 -13 -7 -34 -10
-48 -4 -20 -1 -25 14 -25 28 0 35 16 17 42 -21 29 -20 49 0 23 15 -19 16 -18
9 15 -3 19 -9 43 -11 53 -6 20 0 21 28 6 23 -12 19 0 -11 34 -12 15 -13 22 -3
38 11 16 9 19 -8 19 -11 0 -23 7 -27 16 -3 8 -12 13 -19 10 -7 -3 -18 3 -23
12 -9 16 -10 16 -17 -1 -6 -17 -8 -17 -32 -1 l-27 17 17 -25z m78 -24 c22 -4
35 -18 36 -39 1 -14 -2 -25 -8 -25 -5 0 -6 -5 -2 -12 5 -7 2 -9 -9 -5 -9 3
-18 1 -21 -6 -5 -9 -7 -9 -12 1 -3 6 -10 10 -15 6 -9 -5 -10 1 -13 56 -1 27
12 42 29 32 5 -4 12 -7 15 -8z"/>
<path d="M3007 2234 c-9 -10 2 -24 19 -24 8 0 14 7 14 15 0 15 -21 21 -33 9z"/>
<path d="M1480 2279 c-19 -14 -21 -19 -8 -19 9 0 23 -3 32 -6 11 -4 16 0 16
14 0 30 -12 33 -40 11z"/>
<path d="M1996 2284 c-9 -23 -2 -28 13 -10 7 8 8 17 3 20 -6 3 -13 -1 -16 -10z"/>
<path d="M2675 2290 c-6 -9 62 -6 71 3 4 3 -10 6 -30 5 -20 -1 -39 -4 -41 -8z"/>
<path d="M2271 2278 c-1 -11 -6 -15 -15 -12 -11 4 -13 -6 -12 -48 1 -29 5 -66
9 -83 6 -27 6 -26 -7 5 -8 19 -15 45 -15 57 -1 32 -20 75 -30 69 -15 -9 14
-120 42 -161 15 -22 27 -47 27 -57 0 -9 5 -20 10 -23 6 -4 10 8 10 30 0 20 -4
34 -9 30 -5 -3 -13 -1 -16 5 -8 13 14 42 26 34 14 -8 10 43 -6 82 -14 34 -14
36 13 59 15 14 21 25 14 25 -7 0 -16 -8 -19 -17 -6 -15 -7 -15 -14 3 -6 16 -8
16 -8 2z m8 -133 c0 -5 -4 -3 -9 5 -5 8 -9 22 -9 30 0 16 17 -16 18 -35z"/>
<path d="M2144 2265 c24 -18 39 -20 34 -2 -3 6 -15 13 -29 15 -23 2 -23 2 -5
-13z"/>
<path d="M1023 2263 c-13 -2 -23 -11 -23 -19 0 -17 1 -17 34 -4 33 12 51 -15
36 -54 -7 -19 -6 -26 3 -26 7 0 18 -9 25 -20 23 -38 42 -25 42 30 0 42 -5 55
-26 75 -26 24 -43 27 -91 18z"/>
<path d="M1701 2251 c-38 -10 -39 -32 -2 -25 35 7 40 -6 19 -51 -8 -18 -8 -31
0 -49 9 -21 8 -24 -14 -29 -17 -3 -24 0 -25 12 -1 9 -5 -4 -9 -29 -9 -51 -6
-56 33 -65 31 -8 38 13 12 39 -22 21 -19 29 9 22 29 -7 36 11 36 96 0 87 -5
94 -59 79z"/>
<path d="M2588 2253 c-10 -2 -18 -12 -17 -21 0 -11 2 -12 6 -4 2 6 8 10 13 7
4 -3 10 2 14 10 3 8 4 14 3 14 -1 -1 -10 -3 -19 -6z"/>
<path d="M2643 2253 c15 -2 39 -2 55 0 15 2 2 4 -28 4 -30 0 -43 -2 -27 -4z"/>
<path d="M2745 2250 c26 -11 35 -12 35 -2 0 4 -12 8 -27 9 -24 1 -25 1 -8 -7z"/>
<path d="M2810 2246 c0 -2 7 -6 15 -10 8 -3 15 -1 15 4 0 6 -7 10 -15 10 -8 0
-15 -2 -15 -4z"/>
<path d="M900 2230 c1 -27 36 -35 43 -10 4 16 0 19 -19 18 -13 -1 -24 -5 -24
-8z"/>
<path d="M1986 2225 c-9 -25 -7 -53 4 -60 6 -4 10 -3 9 2 -1 4 1 16 5 25 4 9
3 24 -2 33 -8 16 -9 16 -16 0z"/>
<path d="M2304 2234 c-11 -5 -7 -51 5 -58 3 -2 24 11 46 30 l40 34 -40 -1
c-22 0 -45 -3 -51 -5z"/>
<path d="M3096 2232 c-2 -4 4 -19 15 -32 19 -26 23 -21 13 18 -6 22 -19 29
-28 14z"/>
<path d="M1026 2221 c-3 -5 0 -14 8 -20 11 -9 15 -7 19 9 5 20 -16 29 -27 11z"/>
<path d="M1491 2215 l-35 -11 38 -29 c20 -15 38 -26 39 -24 2 2 0 20 -3 40
l-5 36 -34 -12z"/>
<path d="M2623 2208 c-2 -20 -1 -20 20 -2 20 17 20 17 8 1 -8 -10 -28 -28 -45
-39 l-31 -22 19 22 c11 12 15 22 10 22 -20 0 -31 -39 -33 -117 -2 -76 -1 -83
17 -83 10 0 27 9 37 20 10 11 24 20 32 20 10 0 6 11 -12 37 -14 21 -25 43 -25
49 0 23 37 44 80 44 37 0 50 -6 82 -37 l38 -37 0 56 c0 54 -1 56 -31 62 -17 3
-50 7 -73 8 l-41 1 50 7 c46 7 44 7 -25 7 -68 0 -76 -2 -77 -19z"/>
<path d="M2785 2220 c3 -5 16 -10 28 -9 21 0 21 1 2 9 -28 12 -37 12 -30 0z"/>
<path d="M1696 2205 c4 -10 0 -15 -12 -15 -13 0 -15 -3 -7 -11 14 -14 29 -5
36 21 3 13 0 20 -9 20 -8 0 -11 -6 -8 -15z"/>
<path d="M1780 2186 c0 -13 -3 -38 -6 -55 -6 -27 -4 -31 14 -31 14 0 20 5 16
13 -3 8 -1 32 5 55 8 38 7 42 -10 42 -13 0 -19 -7 -19 -24z"/>
<path d="M2370 2189 c-10 -18 -9 -20 7 -17 10 2 19 11 21 21 5 24 -15 21 -28
-4z"/>
<path d="M1643 2189 c-12 -12 -6 -49 8 -49 5 0 9 14 9 30 0 33 -1 35 -17 19z"/>
<path d="M1832 2153 c-11 -49 -8 -64 7 -47 12 12 21 94 11 94 -5 0 -13 -21
-18 -47z"/>
<path d="M920 2155 c0 -14 10 -35 22 -47 l22 -22 8 29 c5 21 3 34 -9 47 -23
26 -43 22 -43 -7z m34 -7 c9 -36 7 -41 -9 -28 -16 13 -21 50 -6 50 5 0 11 -10
15 -22z"/>
<path d="M1620 2145 c0 -10 8 -24 18 -31 16 -12 15 -13 -5 -14 -13 0 -23 -4
-23 -10 0 -16 40 -12 46 5 3 8 -4 26 -15 41 -17 21 -21 23 -21 9z"/>
<path d="M1670 2145 c0 -8 4 -15 9 -15 5 0 11 7 15 15 3 9 0 15 -9 15 -8 0
-15 -7 -15 -15z"/>
<path d="M2060 2138 c0 -15 -4 -16 -25 -6 -32 14 -37 9 -29 -31 5 -24 9 -29
20 -20 7 6 23 9 36 7 19 -2 24 -10 26 -40 3 -31 0 -37 -12 -32 -9 3 -16 2 -16
-4 0 -14 30 -23 53 -16 15 5 16 8 7 14 -10 6 -11 17 -4 42 8 27 15 33 37 33
21 -1 27 4 27 21 0 20 -24 40 -42 36 -5 -1 -8 1 -8 6 0 4 -16 7 -35 7 -27 0
-35 -4 -35 -17z"/>
<path d="M3095 2128 c12 -53 26 -80 20 -36 -4 24 -1 38 7 40 8 3 4 9 -11 17
-22 12 -23 12 -16 -21z"/>
<path d="M1226 2138 c-7 -22 -17 -103 -13 -98 3 3 16 29 31 58 26 50 26 52 6
52 -11 0 -22 -6 -24 -12z"/>
<path d="M1976 2135 c-9 -26 -7 -32 5 -12 6 10 9 21 6 23 -2 3 -7 -2 -11 -11z"/>
<path d="M2353 2143 c-10 -4 -10 -7 0 -18 7 -7 15 -11 20 -8 4 2 7 -1 7 -6 0
-6 -7 -11 -15 -11 -11 0 -15 -12 -15 -52 0 -56 8 -98 19 -97 7 0 61 111 61
125 0 5 -5 2 -10 -6 -7 -11 -10 -6 -10 20 0 52 -16 66 -57 53z m45 -39 c-3
-14 -5 -12 -10 9 -3 19 -2 25 4 19 6 -6 8 -18 6 -28z"/>
<path d="M2658 2144 c-15 -15 -7 -20 26 -16 19 2 48 -3 67 -13 l34 -17 -20 21
c-21 21 -94 38 -107 25z"/>
<path d="M1060 2130 c19 -13 30 -13 30 0 0 6 -10 10 -22 10 -19 0 -20 -2 -8
-10z"/>
<path d="M2320 2126 c0 -2 8 -10 18 -17 15 -13 16 -12 3 4 -13 16 -21 21 -21
13z"/>
<path d="M2952 2097 c-18 -18 -29 -37 -25 -40 4 -4 17 5 29 20 l22 27 7 -42
c4 -26 12 -42 21 -42 15 0 12 28 -10 83 l-11 28 -33 -34z"/>
<path d="M2214 2100 c3 -14 6 -36 6 -50 1 -17 15 -37 45 -63 l45 -38 -1 53
c-1 45 -3 48 -8 19 -6 -32 -7 -32 -22 -15 -9 11 -19 30 -23 44 -3 14 -15 36
-27 50 l-21 25 6 -25z"/>
<path d="M1036 2086 c-9 -14 -19 -45 -22 -69 l-6 -42 43 -12 c44 -12 44 -12
77 25 27 31 31 42 26 72 -3 19 -7 37 -9 38 -2 2 -23 6 -48 8 -39 5 -46 2 -61
-20z m106 -21 c10 -23 8 -29 -18 -56 -25 -25 -35 -28 -62 -23 -30 6 -32 9 -32
46 0 30 4 39 13 35 8 -3 20 -1 28 5 11 8 10 9 -3 4 -10 -3 -18 -1 -18 4 0 6
18 10 40 10 34 0 42 -4 52 -25z"/>
<path d="M1960 2078 c0 -13 -4 -28 -9 -33 -5 -6 -12 -29 -16 -52 -5 -35 -4
-44 10 -49 9 -4 22 1 31 12 15 18 15 18 11 -3 -4 -16 1 -23 20 -28 13 -3 28
-3 33 0 15 9 38 -17 32 -37 -3 -13 2 -18 18 -18 20 0 22 -4 16 -32 -4 -24 -3
-29 4 -18 16 24 12 58 -7 64 -11 3 -7 4 7 3 19 -2 26 -8 28 -29 2 -16 7 -28
11 -28 4 0 5 17 2 38 -6 32 -10 37 -31 34 l-25 -3 28 18 c29 19 37 39 12 29
-8 -3 -15 -1 -15 4 0 6 -12 10 -26 10 -19 0 -25 -4 -20 -15 4 -11 2 -13 -7 -8
-6 5 -29 19 -50 32 -37 23 -38 25 -32 65 4 22 8 45 9 50 0 6 -7 12 -16 14 -13
2 -18 -3 -18 -20z m70 -128 c13 -8 13 -10 -2 -10 -9 0 -20 5 -23 10 -8 13 5
13 25 0z"/>
<path d="M2320 2076 c0 -14 5 -28 10 -31 6 -3 10 5 10 19 0 14 -4 28 -10 31
-6 3 -10 -5 -10 -19z"/>
<path d="M2690 2090 c0 -5 5 -10 10 -10 6 0 10 5 10 10 0 6 -4 10 -10 10 -5 0
-10 -4 -10 -10z"/>
<path d="M2877 2067 c-33 -29 -52 -58 -27 -42 12 7 13 -5 1 -23 -6 -10 -10
-10 -20 2 -10 12 -9 20 5 41 l17 26 -29 -7 c-56 -13 -72 -23 -79 -46 -6 -16
-3 -25 10 -33 34 -19 55 -45 55 -67 -1 -20 -3 -18 -15 9 -15 36 -43 48 -100
44 -54 -4 -69 -27 -41 -64 13 -17 17 -17 43 -3 15 8 24 15 18 16 -5 0 -4 4 4
9 19 12 50 2 62 -21 8 -15 8 -19 0 -14 -6 4 -11 2 -11 -3 0 -6 -17 -18 -37
-27 -28 -12 -33 -18 -21 -21 10 -3 32 3 50 11 17 9 33 16 35 16 1 0 3 -20 3
-43 l0 -44 -43 1 c-41 1 -44 3 -65 46 l-23 45 6 -38 c4 -26 3 -37 -4 -32 -6 3
-11 10 -11 15 0 5 -5 21 -12 37 -16 41 -20 55 -19 86 1 24 -2 27 -29 27 -29 0
-30 -1 -28 -45 0 -25 5 -45 10 -45 4 0 8 5 8 10 0 6 7 10 16 10 8 0 13 -4 9
-9 -3 -5 -1 -13 5 -16 6 -4 10 -14 9 -23 -3 -25 11 -52 27 -52 19 0 18 -7 -6
-32 -11 -12 -20 -30 -20 -40 0 -13 -8 -18 -30 -18 -21 0 -30 -5 -30 -16 0 -11
5 -14 16 -10 9 3 24 6 35 6 10 0 19 7 19 15 0 8 5 15 11 15 6 0 8 -9 4 -20 -4
-11 -2 -20 4 -20 6 0 11 3 12 8 0 4 2 17 3 30 4 36 17 43 59 30 32 -10 38 -15
35 -37 -3 -22 1 -27 25 -29 l27 -3 -1 141 c-1 127 1 143 17 155 10 7 23 11 28
8 5 -4 6 -1 2 5 -5 8 2 12 18 12 14 0 26 4 26 9 0 5 -10 7 -22 4 -13 -3 -19
-2 -15 2 11 12 40 16 47 6 8 -13 54 -25 46 -12 -4 6 -14 11 -21 11 -8 0 -20
10 -26 22 -8 14 -14 18 -17 10 -2 -6 -13 -12 -24 -12 -21 0 -22 0 41 47 2 2 2
5 0 7 -2 2 -21 -10 -42 -27z m-177 -151 c0 -2 -7 -6 -15 -10 -8 -3 -15 -1 -15
4 0 6 7 10 15 10 8 0 15 -2 15 -4z m-6 -128 c-8 -25 -41 -64 -49 -57 -3 3 3
14 13 25 10 10 21 27 25 37 9 25 20 21 11 -5z"/>
<path d="M934 2060 c3 -18 6 -39 6 -47 0 -26 18 -4 22 27 4 24 0 34 -15 42
-18 9 -19 8 -13 -22z"/>
<path d="M1767 2057 c-6 -37 -2 -43 34 -52 24 -6 27 -3 32 31 4 21 5 39 4 40
-1 0 -16 4 -33 7 -30 6 -32 4 -37 -26z"/>
<path d="M2659 2073 c16 -32 24 -34 72 -18 l44 14 -43 -5 c-33 -5 -48 -2 -64
13 -21 18 -21 18 -9 -4z"/>
<path d="M2037 2074 c-9 -10 4 -34 19 -34 8 0 14 9 14 20 0 19 -19 27 -33 14z"/>
<path d="M2144 2064 c3 -8 2 -12 -4 -9 -6 3 -10 2 -10 -3 0 -14 28 -23 36 -11
8 14 -3 39 -17 39 -6 0 -8 -7 -5 -16z"/>
<path d="M1610 2061 c0 -3 9 -12 20 -19 16 -10 20 -10 20 2 0 7 -9 16 -20 19
-11 3 -20 2 -20 -2z"/>
<path d="M1221 2024 c-24 -41 -40 -144 -22 -144 6 0 11 9 11 20 0 11 5 20 11
20 7 0 9 12 6 33 -7 47 7 67 49 67 28 0 36 -5 44 -25 34 -87 32 -85 46 -26 18
78 9 91 -65 91 -57 0 -60 -1 -80 -36z"/>
<path d="M2950 2045 c-10 -12 -10 -15 4 -15 9 0 16 7 16 15 0 8 -2 15 -4 15
-2 0 -9 -7 -16 -15z"/>
<path d="M1596 2009 c-14 -69 -9 -74 32 -38 l37 34 -27 18 c-36 22 -34 22 -42
-14z"/>
<path d="M2000 2018 c0 -16 8 -29 24 -36 22 -10 24 -8 28 19 3 19 0 29 -8 29
-7 0 -19 3 -28 6 -12 5 -16 0 -16 -18z"/>
<path d="M2707 2033 c-11 -3 -16 -10 -13 -20 3 -8 6 -17 6 -19 0 -14 19 0 28
21 12 25 11 26 -21 18z"/>
<path d="M2137 2017 c4 -6 6 -20 5 -29 -2 -10 2 -18 7 -18 17 0 13 47 -5 54
-10 4 -13 2 -7 -7z"/>
<path d="M2327 1965 l6 -60 -48 45 -47 45 26 -52 c14 -29 26 -55 26 -58 0 -3
-15 -5 -32 -5 l-33 -1 28 -15 c34 -18 34 -28 1 -43 -33 -15 -46 -5 -20 15 12
8 15 14 7 14 -11 0 -51 -36 -51 -46 0 -1 26 -2 58 -1 l57 2 -2 -55 -3 -55 22
43 c12 23 25 42 29 42 4 0 19 -19 33 -42 l26 -43 -6 48 c-4 30 -2 47 4 47 6 0
12 -3 14 -7 2 -5 21 -24 42 -43 l39 -35 -23 40 c-13 22 -27 44 -32 50 -14 16
-9 25 15 25 21 1 21 1 3 15 -10 8 -24 16 -30 18 -8 3 -7 8 2 18 18 20 15 31
-8 24 -20 -6 -21 -4 -15 47 4 29 8 59 10 66 10 31 -7 7 -26 -38 -20 -48 -38
-64 -40 -37 0 6 -9 30 -19 52 l-19 40 6 -60z m33 -66 c0 -6 7 -9 15 -5 8 3 15
1 15 -4 0 -6 6 -10 13 -10 8 0 13 -9 11 -22 -1 -13 -3 -29 -3 -36 -1 -7 -5
-10 -11 -7 -5 3 -10 2 -10 -3 0 -5 -13 -9 -30 -9 -16 0 -30 4 -30 9 0 4 -6 8
-14 8 -11 0 -13 7 -6 29 4 16 6 32 2 35 -3 3 2 6 11 6 10 0 17 5 17 10 0 6 5
10 10 10 6 0 10 -5 10 -11z"/>
<path d="M2342 1853 c5 -26 38 -29 38 -4 0 15 -6 21 -21 21 -14 0 -19 -5 -17
-17z"/>
<path d="M1253 2003 c-19 -7 -16 -23 4 -23 9 0 27 -10 40 -22 17 -16 23 -18
23 -7 0 31 -40 61 -67 52z"/>
<path d="M1500 1998 c0 -9 5 -29 11 -45 6 -15 13 -40 14 -56 3 -28 21 -57 36
-57 4 0 2 15 -6 34 -8 19 -17 51 -19 72 -5 39 -36 84 -36 52z"/>
<path d="M2635 1999 c-11 -16 1 -22 30 -15 14 4 23 11 20 16 -8 13 -42 13 -50
-1z"/>
<path d="M1128 1966 c-21 -26 -32 -32 -52 -29 -19 4 -26 1 -26 -11 0 -11 9
-16 28 -16 33 0 86 49 80 74 -2 12 -10 8 -30 -18z"/>
<path d="M1686 1985 c4 -8 10 -15 15 -15 5 0 9 -7 9 -16 0 -8 5 -12 10 -9 6 3
10 -5 10 -18 0 -14 7 -27 15 -31 8 -3 14 -2 14 2 -3 21 3 24 17 6 14 -17 15
-17 10 -1 -3 10 -6 23 -6 28 0 6 -4 7 -10 4 -6 -3 -7 1 -4 9 8 21 24 20 24 -1
1 -16 2 -16 11 1 9 15 13 16 20 5 6 -11 9 -9 9 8 0 15 -9 24 -31 32 -40 14
-72 14 -64 1 13 -22 -7 -30 -25 -10 -20 24 -32 26 -24 5z m70 -31 c-3 -9 -6
-21 -7 -27 0 -7 -4 -3 -8 8 -9 22 -5 35 11 35 5 0 7 -7 4 -16z"/>
<path d="M2965 1990 l-50 -6 55 -5 c64 -6 61 -6 52 6 -4 6 -29 8 -57 5z"/>
<path d="M2060 1978 c0 -5 16 -8 35 -8 19 0 35 3 35 8 0 4 -16 7 -35 7 -19 0
-35 -3 -35 -7z"/>
<path d="M2435 1957 c-8 -42 -6 -50 13 -38 10 6 11 17 4 42 l-9 34 -8 -38z"/>
<path d="M1631 1956 c-21 -22 -21 -23 -2 -40 19 -17 21 -17 45 1 31 22 31 24
2 45 -22 16 -24 16 -45 -6z"/>
<path d="M3075 1970 c-2 -3 5 -7 16 -7 10 -1 19 2 19 6 0 9 -29 10 -35 1z"/>
<path d="M1254 1955 c-3 -8 -3 -19 0 -24 9 -13 36 -2 36 14 0 19 -30 27 -36
10z"/>
<path d="M2995 1960 c7 -11 45 -20 45 -10 0 4 -11 10 -25 12 -13 3 -22 2 -20
-2z"/>
<path d="M2890 1953 c1 -8 70 -44 70 -37 0 2 -10 12 -22 24 -22 20 -48 27 -48
13z"/>
<path d="M2950 1950 c8 -5 20 -10 25 -10 6 0 3 5 -5 10 -8 5 -19 10 -25 10 -5
0 -3 -5 5 -10z"/>
<path d="M3051 1934 c-10 -7 -22 -10 -26 -6 -5 4 -6 0 -2 -9 6 -19 -13 -93
-30 -110 -8 -8 -8 1 -1 33 14 66 16 98 5 98 -5 0 -7 -9 -4 -21 6 -22 -11 -69
-25 -69 -4 0 -8 -10 -8 -22 -1 -23 -1 -23 -16 -3 -16 19 -16 19 -9 -5 5 -18 4
-22 -4 -15 -6 6 -12 23 -13 38 -1 15 -6 23 -11 18 -16 -16 33 -98 52 -87 5 4
15 -3 21 -14 10 -18 8 -20 -20 -20 -16 0 -30 -5 -30 -11 0 -6 10 -10 23 -9 40
4 49 0 44 -15 -4 -8 -2 -17 4 -20 5 -4 9 -3 8 2 -3 19 2 33 11 33 6 0 10 -7 8
-17 -2 -13 5 -17 35 -17 23 -1 37 3 37 11 0 7 -7 10 -15 7 -9 -4 -15 0 -15 7
0 12 -2 12 -9 0 -6 -9 -11 -10 -15 -2 -4 6 -1 11 6 12 7 0 27 2 43 2 l30 2 2
99 c1 54 0 96 -3 93 -3 -3 -6 -32 -7 -65 -1 -33 -6 -64 -11 -69 -4 -4 -6 15
-4 44 3 29 1 50 -4 47 -5 -3 -6 -9 -3 -14 3 -5 1 -11 -5 -15 -6 -4 -8 -11 -5
-16 4 -5 2 -9 -4 -9 -13 0 -8 48 7 77 10 18 9 24 -5 33 -16 10 -16 10 2 6 11
-3 26 -2 33 3 8 5 2 8 -18 8 -17 0 -39 -6 -49 -13z m14 -35 c-11 -50 -13 -63
-14 -81 -1 -10 -5 -18 -10 -18 -9 0 -6 91 4 118 10 27 26 11 20 -19z m19 -110
c-3 -5 0 -16 6 -24 10 -12 10 -15 0 -15 -7 0 -18 7 -24 15 -9 12 -18 13 -43 6
-18 -5 -33 -6 -33 -1 0 4 18 11 40 15 22 4 40 11 40 16 0 6 5 7 10 4 6 -4 8
-11 4 -16z"/>
<path d="M970 1928 c0 -10 9 -25 19 -35 15 -14 19 -30 17 -68 -1 -28 -6 -56
-10 -63 -4 -7 -5 -26 -1 -42 6 -28 10 -30 53 -30 54 0 92 9 92 20 0 5 -10 10
-22 13 -22 3 -22 4 -3 12 24 10 42 31 55 63 10 23 32 27 89 16 46 -10 38 -30
-16 -42 l-48 -10 48 -1 c40 -1 47 -4 47 -21 0 -20 -19 -23 -32 -5 -5 6 -8 5
-8 -2 0 -7 -9 -13 -20 -13 -11 0 -20 4 -20 9 0 5 -8 8 -17 6 -10 -2 -21 -4
-24 -4 -4 -1 -9 -10 -12 -21 -5 -19 0 -20 73 -20 l77 0 22 102 c21 97 21 103
5 115 -36 26 -73 -39 -39 -67 8 -7 15 -24 15 -38 0 -22 -3 -19 -23 19 -19 36
-29 45 -55 47 -24 2 -32 -1 -32 -12 0 -9 -9 -21 -20 -28 -11 -7 -20 -18 -20
-25 0 -7 -4 -13 -10 -13 -5 0 -10 10 -10 22 0 33 -11 14 -12 -21 -1 -17 -5
-31 -10 -31 -16 0 -6 104 14 129 23 31 23 49 0 28 -10 -10 -27 -17 -37 -17
-13 0 -15 -3 -7 -12 17 -21 0 -138 -19 -138 -8 0 -9 11 -5 33 15 66 13 87 -10
108 -13 12 -28 18 -35 14 -7 -5 -19 2 -30 16 -15 19 -19 21 -19 7z m82 -80
c-8 -8 -8 -15 -1 -24 7 -9 6 -21 -5 -43 -9 -16 -13 -38 -9 -48 5 -15 4 -16 -8
-5 -11 10 -11 18 -1 44 6 17 8 36 4 42 -4 6 -7 28 -8 49 l0 38 20 -21 c16 -15
18 -22 8 -32z"/>
<path d="M2234 1923 c2 -9 8 -19 14 -21 14 -4 15 0 6 22 -8 21 -23 20 -20 -1z"/>
<path d="M1161 1918 c0 -10 -10 -27 -21 -38 -15 -15 -16 -20 -5 -20 18 0 38
36 32 58 -4 16 -5 16 -6 0z"/>
<path d="M1919 1903 c-16 -44 -8 -77 21 -81 32 -5 52 -22 46 -39 -4 -11 -1
-11 15 -2 l21 11 -24 26 c-12 15 -27 30 -31 33 -5 3 -2 12 6 20 14 15 11 39
-7 51 -21 14 -37 8 -47 -19z"/>
<path d="M2900 1927 c0 -3 12 -12 26 -22 15 -9 23 -12 20 -6 -7 11 -46 35 -46
28z"/>
<path d="M1586 1903 c-9 -23 8 -36 34 -28 20 6 21 8 4 26 -21 23 -30 24 -38 2z"/>
<path d="M1255 1900 c3 -5 10 -10 16 -10 5 0 9 5 9 10 0 6 -7 10 -16 10 -8 0
-12 -4 -9 -10z"/>
<path d="M1674 1895 c-3 -8 -24 -20 -45 -26 -42 -13 -46 -18 -26 -38 12 -12
-4 -11 -65 6 -22 5 -23 -1 -2 -21 11 -12 27 -14 57 -10 l42 6 -32 -21 c-18
-11 -33 -28 -33 -36 0 -9 -4 -14 -9 -10 -5 3 -13 0 -17 -6 -4 -8 -3 -9 4 -5
16 10 15 -17 0 -32 -9 -9 -5 -12 20 -12 25 0 32 4 32 20 0 11 5 20 11 20 6 0
9 -9 6 -20 -5 -19 0 -20 74 -20 77 0 79 0 79 25 0 28 -45 80 -77 90 -20 5 -21
3 -16 -39 5 -55 -12 -70 -21 -17 -3 22 -9 46 -12 55 -5 12 1 16 24 16 34 0 82
-18 82 -32 0 -4 4 -8 10 -8 16 0 0 27 -23 38 -17 8 -18 11 -5 11 9 1 24 -6 32
-15 9 -9 16 -11 16 -4 0 6 -15 17 -32 25 -36 16 -24 20 14 6 20 -7 24 -6 25 9
1 13 -9 22 -33 30 -20 7 -38 9 -41 6 -4 -3 -1 -6 5 -6 18 0 65 -20 60 -26 -7
-7 -88 26 -88 36 0 5 6 11 13 13 7 3 5 6 -6 6 -10 1 -20 -6 -23 -14z"/>
<path d="M2000 1890 c6 -11 16 -20 23 -20 26 -1 57 -38 57 -69 0 -32 -24 -101
-35 -101 -7 0 0 36 13 70 5 14 6 34 1 45 -7 17 -8 16 -8 -8 -1 -16 -5 -26 -10
-23 -12 8 -34 -21 -28 -36 4 -8 6 -7 6 4 1 9 5 19 10 22 4 3 8 -8 7 -24 -1
-34 -31 -43 -39 -12 -2 9 -3 2 -1 -16 1 -18 -1 -30 -7 -27 -5 4 -9 14 -9 23
-1 9 -7 31 -15 47 -13 27 -14 27 -9 4 9 -45 12 -64 13 -77 1 -10 21 -12 79
-10 74 3 77 4 78 28 3 46 13 85 24 88 19 7 63 52 57 58 -3 3 -15 -5 -27 -19
-12 -14 -29 -23 -36 -20 -8 3 -14 -1 -14 -11 0 -9 -4 -16 -8 -16 -4 0 -8 -8
-9 -17 -4 -54 -9 -77 -19 -80 -8 -3 -10 7 -6 29 11 65 4 120 -17 134 -12 9
-17 21 -14 34 5 17 0 20 -31 20 -34 0 -36 -2 -26 -20z"/>
<path d="M2160 1885 c0 -14 4 -25 9 -25 5 0 8 11 7 25 -1 33 -16 33 -16 0z"/>
<path d="M2194 1895 c-9 -21 -2 -26 13 -10 8 9 9 16 3 20 -6 3 -13 -1 -16 -10z"/>
<path d="M964 1887 c3 -10 6 -26 6 -35 0 -12 3 -13 11 -5 8 8 7 17 -6 35 -12
16 -16 18 -11 5z"/>
<path d="M1220 1890 c0 -5 7 -10 16 -10 8 0 12 5 9 10 -3 6 -10 10 -16 10 -5
0 -9 -4 -9 -10z"/>
<path d="M1801 1884 c0 -11 3 -14 6 -6 3 7 2 16 -1 19 -3 4 -6 -2 -5 -13z"/>
<path d="M2966 1883 c-6 -14 -5 -15 5 -6 7 7 10 15 7 18 -3 3 -9 -2 -12 -12z"/>
<path d="M2457 1876 c-3 -8 -2 -18 4 -22 16 -9 22 2 11 21 -8 15 -10 16 -15 1z"/>
<path d="M2927 1870 c3 -11 9 -20 15 -20 5 0 4 9 -2 20 -6 11 -12 20 -14 20
-2 0 -2 -9 1 -20z"/>
<path d="M1161 1844 c0 -11 3 -14 6 -6 3 7 2 16 -1 19 -3 4 -6 -2 -5 -13z"/>
<path d="M2004 1846 c11 -9 24 -16 30 -16 12 0 7 5 -24 19 -24 11 -24 11 -6
-3z"/>
<path d="M2578 1843 c6 -2 18 -2 25 0 6 3 1 5 -13 5 -14 0 -19 -2 -12 -5z"/>
<path d="M2572 1783 c0 -27 6 -51 12 -55 20 -14 36 -8 36 12 0 11 -4 20 -10
20 -5 0 -10 4 -10 10 0 5 6 7 14 4 8 -3 17 0 21 7 6 8 -1 10 -24 7 -30 -4 -41
4 -21 17 11 7 4 25 -10 25 -5 0 -9 -21 -8 -47z"/>
<path d="M981 1794 c0 -11 3 -14 6 -6 3 7 2 16 -1 19 -3 4 -6 -2 -5 -13z"/>
<path d="M1905 1798 c-2 -7 -6 -26 -8 -43 -3 -16 -8 -40 -12 -52 -7 -21 -4
-23 27 -23 34 0 35 1 35 40 0 22 -4 43 -8 46 -5 3 -9 14 -9 25 0 21 -18 26
-25 7z"/>
<path d="M2470 1797 c0 -7 7 -22 16 -33 15 -19 15 -19 6 1 -5 11 -7 26 -5 33
3 6 0 12 -6 12 -6 0 -11 -6 -11 -13z"/>
<path d="M2900 1796 c0 -2 8 -10 18 -17 15 -13 16 -12 3 4 -13 16 -21 21 -21
13z"/>
<path d="M1776 1773 c-4 -9 -2 -21 4 -27 7 -7 10 -2 10 17 0 31 -5 34 -14 10z"/>
<path d="M2250 1780 c0 -5 5 -10 11 -10 8 0 10 -15 7 -45 -3 -25 -2 -45 2 -45
10 0 20 37 20 78 0 25 -4 32 -20 32 -11 0 -20 -4 -20 -10z"/>
<path d="M2332 1718 c-13 -35 -6 -53 10 -25 9 18 10 18 23 0 21 -29 29 -7 9
26 -10 17 -21 31 -24 31 -3 0 -11 -14 -18 -32z"/>
<path d="M2420 1738 c0 -25 12 -58 21 -58 5 0 6 7 2 16 -5 15 -3 14 21 -1 43
-28 41 -10 -4 25 -24 19 -40 26 -40 18z"/>
<path d="M2697 1734 c-10 -11 -9 -54 2 -54 6 0 12 4 15 9 8 12 -8 54 -17 45z"/>
<path d="M2739 1728 c-6 -21 -5 -38 2 -38 5 0 9 9 9 20 0 16 -7 28 -11 18z"/>
<path d="M2906 1711 c-4 -5 -2 -12 3 -15 5 -4 12 -2 15 3 4 5 2 12 -3 15 -5 4
-12 2 -15 -3z"/>
<path d="M2970 1710 c0 -5 -7 -7 -15 -4 -9 4 -15 0 -15 -8 0 -21 36 -17 37 4
1 10 0 18 -3 18 -2 0 -4 -4 -4 -10z"/>
</g>
</svg>
